# xmcd
#
# Track frame offsets:
#	150
#	17572
#	29480
#	48700
#	59125
#	86772
#	107042
#	119940
#	148605
#	164945
#	200277
#	222232
#	245297
#	272837
#	310927
#
# Disc length: 4442 seconds
#
# Revision: 2
# Processed by: cddbd v1.4PL0 Copyright (c) Steve Scherf et al.
# Submitted via: audiograbber 1.80.04
#
DISCID=ef11580f
DTITLE=Stevie Ray Vaughan And Double Trouble - Unsurpassed Masters - Volume 
DYEAR=1990
DGENRE=Blues
TTITLE0=Hug and Squeeze You
TTITLE1=Woke Up This Morning (Instrumental)
TTITLE2=Hendrix Shuffle
TTITLE3=Hangnails and Boogers
TTITLE4=Life Without You
TTITLE5=Sky Is Crying
TTITLE6=Boot Hill
TTITLE7=Come On
TTITLE8=Rude Moon
TTITLE9=Life Without You (Different Take)
TTITLE10=Give Me Back My Wig
TTITLE11=Shake For Me
TTITLE12=I'm Leaving You (Commit A Crime)
TTITLE13=Boiler Maker
TTITLE14=Chitlins Con Carne
EXTD=Bootleg
EXTT0=
EXTT1=\n
EXTT2=\n
EXTT3=
EXTT4=
EXTT5=
EXTT6=
EXTT7=
EXTT8=
EXTT9=
EXTT10=
EXTT11=
EXTT12=
EXTT13=
EXTT14=
PLAYORDER=
